PathFileType	4	(x/y/z)	TRC_MarkerData\Passive\Passive_Pref0006.trc
DataRate	CameraRate	NumFrames	NumMarkers	Units	OrigDataRate	OrigDataStartFrame	OrigNumFrames
240	240	9	49	mm	240	196	313
Frame#	Time	R_AC			L_AC			HEAD			STERN			C7			R_IC			L_ASIS			R_ASIS			L_GT			R_GT			L_PSIS			R_PSIS			SACRAL			L_LAT_KNEE			L_MED_KNEE			R_LAT_KNEE			R_MED_KNEE			L_LAT_ANK			L_MED_ANK			R_LAT_ANK			R_MED_ANK			L_THIGH_PROX_POST			L_THIGH_PROX_ANT			L_THIGH_DIST_ANT			L_THIGH_DIST_POST			R_THIGH_PROX_POST			R_THIGH_PROX_ANT			R_THIGH_DIST_ANT			R_THIGH_DIST_POST			L_SHANK_PROX_POST			L_SHANK_PROX_ANT			L_SHANK_DIST_ANT			L_SHANK_DIST_POST			R_SHANK_PROX_POST			R_SHANK_PROX_ANT			R_SHANK_DIST_ANT			R_SHANK_DIST_POST			L_HEEL_LAT			L_HEEL_SUP			L_HEEL_MED			R_HEEL_LAT			R_HEEL_SUP			R_HEEL_MED			L_1ST_MET			L_5TH_MET			L_TOE			R_1ST_MET			R_5TH_MET			R_TOE			
		X1	Y1	Z1	X2	Y2	Z2	X3	Y3	Z3	X4	Y4	Z4	X5	Y5	Z5	X6	Y6	Z6	X7	Y7	Z7	X8	Y8	Z8	X9	Y9	Z9	X10	Y10	Z10	X11	Y11	Z11	X12	Y12	Z12	X13	Y13	Z13	X14	Y14	Z14	X15	Y15	Z15	X16	Y16	Z16	X17	Y17	Z17	X18	Y18	Z18	X19	Y19	Z19	X20	Y20	Z20	X21	Y21	Z21	X22	Y22	Z22	X23	Y23	Z23	X24	Y24	Z24	X25	Y25	Z25	X26	Y26	Z26	X27	Y27	Z27	X28	Y28	Z28	X29	Y29	Z29	X30	Y30	Z30	X31	Y31	Z31	X32	Y32	Z32	X33	Y33	Z33	X34	Y34	Z34	X35	Y35	Z35	X36	Y36	Z36	X37	Y37	Z37	X38	Y38	Z38	X39	Y39	Z39	X40	Y40	Z40	X41	Y41	Z41	X42	Y42	Z42	X43	Y43	Z43	X44	Y44	Z44	X45	Y45	Z45	X46	Y46	Z46	X47	Y47	Z47	X48	Y48	Z48	X49	Y49	Z49	

196	0.8151	178.57	1485.9	486.92	133.22	1528.7	80.856	164.15	1835.7	309.03	220.32	1477.9	279.72	86.079	1552	290.13	153.78	1071.5	436.73	174.41	1011.7	128.61	214.04	1035.2	392.85	69.062	929.45	93.811	151.19	954.93	453.36	-8.4529	1024.8	232.91	-1.0404	1023.7	341.09	-13.517	989.16	286.61	48.08	513.1	113.56	71.826	522.84	249.92	292.57	553.45	392.74	270.92	554.36	263.5	-334.95	253.51	174.94	-332.3	258.22	264.14	277.46	84.779	332.16	311.7	120.84	238.01	46.409	755.72	104.76	107.95	745.19	98.569	104.36	671.72	108.65	17.526	679.61	112.93	201.03	768.87	445.34	265.03	794.65	435.32	286.02	721.98	422.55	218.65	698.49	428.04	-43.024	469.25	141.93	-0.73436	421.47	145.55	-38.176	389.27	157.39	-76.319	433.97	143.98	271.72	360.2	396.71	334.19	373.71	373.7	336.13	300.74	356.52	272.57	287.13	378.43	-427.66	241.16	186.58	-416.18	270.54	217.27	-427.35	249.43	253.33	211.47	34.711	300.28	209.65	67.783	268.7	230.73	43.537	237.32	-269.58	90.789	282.83	-289.74	99.237	173.68	-226.65	65.784	250.65	441.02	63.271	247.33	420.94	45.672	354.24	486.5	71.202	289.64
197	0.81928	183.91	1486.9	487.06	137.98	1529.5	81.004	169.55	1836.6	309.4	225.43	1478.8	279.8	91.223	1552.9	290.38	159.3	1072.4	437.1	179.91	1012.7	129.14	219.38	1035.9	393.37	75.12	930.07	94.074	156.53	955.47	453.76	-3.0448	1025.4	233.38	4.3426	1024.6	341.58	-8.2006	989.89	287.12	58.139	513.3	112.29	82.255	522.78	248.59	295.81	553.34	392.64	274.14	554.45	263.36	-327.13	257.15	174.26	-324.25	261.8	263.46	277.74	84.919	331.9	312.04	120.62	237.64	54.638	755.89	104.35	116.2	746.01	98.242	113.38	672.46	107.97	28.576	679.31	112.56	205.4	769.11	445.35	269.66	794.56	435.49	290.19	721.77	422.64	222.62	698.66	428	-33.32	470.27	140.81	8.5726	422.07	144.35	-29.133	390.2	156.23	-66.938	435.29	142.9	273.74	360.25	396.45	336.32	373.37	373.47	337.82	300.39	356.27	274.13	287.16	378.13	-419.94	245.67	186.06	-408.15	274.92	216.72	-419.43	253.9	252.8	211.6	34.917	300.27	209.79	67.911	268.59	230.81	43.569	237.26	-263.03	93.73	281.89	-283.37	102.42	172.8	-220.4	68.326	249.64	441.17	62.435	246.97	421.17	45.43	354.02	486.66	70.358	289.13
198	0.82346	189.24	1487.9	487.19	142.66	1530.3	81.135	174.95	1837.5	309.75	230.51	1479.8	279.87	96.354	1553.7	290.62	164.78	1073.3	437.48	185.4	1013.8	129.67	224.68	1036.6	393.9	81.156	930.76	94.32	161.82	955.99	454.14	2.3341	1026.1	233.85	9.6939	1025.3	342.06	-2.9274	990.61	287.63	68.254	513.62	111.04	92.687	522.87	247.27	298.94	553.21	392.53	277.26	554.53	263.23	-319.1	260.69	173.51	-316.01	265.31	262.71	278.01	85.062	331.64	312.36	120.4	237.28	62.819	756.15	103.96	124.41	746.91	97.915	122.39	673.32	107.28	40.647	679.13	112.09	209.73	769.35	445.37	274.22	794.47	435.63	294.27	721.55	422.72	226.52	698.83	427.97	-23.533	471.36	139.67	17.983	422.77	143.16	-19.967	391.22	155.07	-57.453	436.67	141.81	275.67	360.28	396.2	338.37	373.03	373.25	339.43	300.05	356.03	275.63	287.19	377.84	-411.99	250.01	185.46	-399.91	279.16	216.09	-411.31	258.22	252.17	211.72	35.119	300.25	209.92	68.035	268.47	230.88	43.595	237.21	-256.19	96.668	280.95	-276.66	105.57	171.89	-213.82	70.901	248.63	441.31	61.637	246.63	421.37	45.217	353.82	486.8	69.562	288.64
199	0.82764	194.55	1488.9	487.3	147.29	1531.1	81.252	180.32	1838.4	310.06	235.57	1480.7	279.92	101.47	1554.6	290.86	170.24	1074.1	437.87	190.87	1014.9	130.19	229.96	1037.3	394.42	87.172	931.52	94.546	167.06	956.51	454.52	7.6875	1026.7	234.31	15.016	1026.1	342.54	2.3067	991.32	288.12	78.419	514.05	109.78	103.12	523.12	245.97	301.97	553.08	392.44	280.28	554.59	263.09	-310.86	264.13	172.69	-307.59	268.72	261.9	278.26	85.205	331.38	312.65	120.2	236.91	70.949	756.51	103.6	132.58	747.89	97.591	131.38	674.3	106.58	53.343	679.09	111.49	214	769.59	445.4	278.72	794.38	435.75	298.28	721.35	422.78	230.35	699.01	427.95	-13.67	472.51	138.52	27.491	423.57	141.98	-10.683	392.32	153.91	-47.871	438.09	140.69	277.53	360.32	395.96	340.32	372.7	373.05	340.98	299.72	355.81	277.06	287.21	377.57	-403.81	254.17	184.76	-391.48	283.23	215.35	-402.98	262.37	251.45	211.84	35.318	300.23	210.04	68.156	268.34	230.95	43.617	237.14	-249.05	99.585	280	-269.62	108.66	170.98	-206.93	73.487	247.63	441.44	60.878	246.3	421.57	45.029	353.64	486.93	68.81	288.18
200	0.83182	199.84	1490	487.4	151.85	1531.8	81.358	185.68	1839.4	310.35	240.62	1481.7	279.96	106.58	1555.5	291.09	175.66	1075	438.26	196.34	1016.1	130.72	235.21	1037.9	394.95	93.173	932.34	94.753	172.25	957.02	454.88	13.019	1027.4	234.77	20.312	1026.9	343.01	7.506	992.03	288.6	88.629	514.59	108.54	113.54	523.52	244.68	304.89	552.94	392.36	283.22	554.64	262.97	-302.41	267.45	171.8	-299	272.03	261.01	278.5	85.347	331.12	312.93	120.01	236.56	79.028	756.95	103.27	140.7	748.95	97.268	140.37	675.4	105.88	66.272	679.23	110.75	218.22	769.85	445.43	283.15	794.3	435.85	302.21	721.15	422.83	234.12	699.19	427.94	-3.7374	473.72	137.35	37.09	424.45	140.81	-1.2872	393.48	152.76	-38.199	439.55	139.57	279.3	360.34	395.74	342.19	372.38	372.86	342.45	299.4	355.61	278.43	287.23	377.32	-395.42	258.14	183.97	-382.86	287.13	214.51	-394.46	266.35	250.62	211.95	35.512	300.21	210.16	68.274	268.2	231.02	43.638	237.08	-241.62	102.46	279.04	-262.26	111.68	170.04	-199.73	76.063	246.65	441.56	60.158	246.01	421.75	44.859	353.47	487.05	68.101	287.76
201	0.836	205.12	1491.1	487.5	156.38	1532.6	81.455	191.02	1840.4	310.6	245.64	1482.8	279.98	111.68	1556.5	291.31	181.04	1075.9	438.65	201.79	1017.3	131.23	240.44	1038.6	395.48	99.159	933.22	94.939	177.39	957.53	455.24	18.332	1028	235.21	25.585	1027.6	343.47	12.674	992.75	289.06	98.878	515.22	107.3	123.94	524.05	243.4	307.72	552.81	392.29	286.06	554.68	262.87	-293.76	270.62	170.84	-290.25	275.22	260.06	278.72	85.486	330.88	313.2	119.83	236.22	87.058	757.49	102.96	148.78	750.09	96.947	149.34	676.61	105.17	79.04	679.59	109.81	222.38	770.12	445.47	287.52	794.23	435.95	306.07	720.96	422.88	237.82	699.39	427.95	6.2574	474.98	136.18	46.771	425.41	139.65	8.2127	394.7	151.62	-28.444	441.03	138.43	281	360.36	395.55	343.98	372.07	372.71	343.86	299.1	355.44	279.74	287.24	377.1	-386.81	261.92	183.09	-374.07	290.85	213.57	-385.77	270.13	249.71	212.06	35.702	300.2	210.26	68.39	268.07	231.09	43.661	237.03	-233.93	105.28	278.08	-254.59	114.6	169.09	-192.23	78.608	245.67	441.68	59.479	245.74	421.92	44.702	353.33	487.16	67.432	287.37
202	0.84018	210.38	1492.2	487.58	160.86	1533.3	81.546	196.34	1841.4	310.81	250.64	1483.8	280.01	116.76	1557.4	291.52	186.4	1076.7	439.04	207.24	1018.6	131.74	245.64	1039.3	396.01	105.14	934.16	95.106	182.48	958.04	455.58	23.631	1028.7	235.64	30.837	1028.4	343.92	17.814	993.47	289.5	109.16	515.95	106.08	134.33	524.72	242.15	310.45	552.67	392.24	288.82	554.71	262.79	-284.92	273.65	169.82	-281.35	278.27	259.04	278.94	85.62	330.65	313.45	119.67	235.89	95.044	758.1	102.68	156.83	751.29	96.627	158.3	677.92	104.45	91.253	680.19	108.67	226.49	770.4	445.53	291.82	794.16	436.03	309.85	720.77	422.93	241.47	699.6	427.97	16.307	476.27	134.99	56.529	426.43	138.5	17.81	395.97	150.47	-18.614	442.52	137.28	282.62	360.38	395.39	345.69	371.76	372.58	345.21	298.8	355.3	281	287.25	376.91	-378.02	265.49	182.11	-365.11	294.37	212.54	-376.91	273.72	248.69	212.16	35.887	300.18	210.36	68.505	267.93	231.16	43.688	236.97	-225.97	108.02	277.11	-246.63	117.42	168.13	-184.44	81.105	244.7	441.79	58.839	245.5	422.07	44.555	353.2	487.27	66.801	287.02
203	0.84436	215.62	1493.4	487.66	165.31	1534	81.633	201.63	1842.4	310.99	255.63	1484.8	280.03	121.83	1558.3	291.72	191.74	1077.6	439.44	212.69	1019.9	132.24	250.83	1039.9	396.53	111.1	935.15	95.255	187.52	958.55	455.91	28.918	1029.4	236.05	36.073	1029.1	344.34	22.931	994.21	289.91	119.47	516.76	104.88	144.69	525.5	240.91	313.08	552.54	392.21	291.49	554.73	262.74	-275.9	276.53	168.74	-272.3	281.18	257.96	279.13	85.749	330.43	313.68	119.53	235.59	102.99	758.8	102.4	164.85	752.56	96.306	167.25	679.32	103.74	102.52	681.09	107.29	230.54	770.69	445.59	296.06	794.1	436.11	313.56	720.6	422.98	245.05	699.82	428.02	26.405	477.59	133.8	66.357	427.52	137.36	27.499	397.28	149.34	-8.7165	444.03	136.12	284.17	360.4	395.26	347.32	371.47	372.48	346.5	298.52	355.2	282.2	287.26	376.76	-369.03	268.83	181.06	-356.01	297.68	211.41	-367.89	277.1	247.59	212.25	36.067	300.17	210.46	68.62	267.81	231.23	43.721	236.92	-217.76	110.68	276.12	-238.39	120.11	167.13	-176.37	83.536	243.74	441.9	58.241	245.29	422.22	44.412	353.09	487.37	66.206	286.72
204	0.84854	220.84	1494.6	487.74	169.74	1534.7	81.717	206.9	1843.4	311.13	260.59	1485.9	280.04	126.88	1559.3	291.92	197.05	1078.5	439.83	218.12	1021.2	132.73	256	1040.6	397.05	117.06	936.19	95.386	192.5	959.06	456.24	34.197	1030.1	236.44	41.294	1029.8	344.75	28.026	994.95	290.3	129.8	517.65	103.69	155.03	526.39	239.71	315.62	552.41	392.2	294.07	554.74	262.72	-266.71	279.23	167.6	-263.11	283.94	256.82	279.32	85.871	330.24	313.91	119.4	235.32	110.92	759.57	102.14	172.85	753.89	95.984	176.18	680.82	103.02	112.44	682.3	105.63	234.53	770.99	445.68	300.23	794.04	436.2	317.19	720.43	423.04	248.56	700.05	428.08	36.543	478.93	132.62	76.249	428.65	136.24	37.273	398.61	148.21	1.2414	445.52	134.95	285.65	360.41	395.16	348.87	371.19	372.42	347.73	298.24	355.14	283.34	287.26	376.64	-359.88	271.95	179.91	-346.75	300.78	210.21	-358.71	280.27	246.41	212.34	36.241	300.16	210.54	68.735	267.69	231.3	43.762	236.88	-209.3	113.22	275.11	-229.86	122.67	166.12	-168.03	85.886	242.76	442.01	57.685	245.11	422.35	44.271	353.01	487.47	65.645	286.46
